<?xml version="1.0" encoding="UTF-8" standalone="no"?>
<!-- Generator: Adobe Illustrator 18.0.0, SVG Export Plug-In . SVG Version: 6.00 Build 0)  -->

<svg
   xmlns:dc="http://purl.org/dc/elements/1.1/"
   xmlns:cc="http://creativecommons.org/ns#"
   xmlns:rdf="http://www.w3.org/1999/02/22-rdf-syntax-ns#"
   xmlns:svg="http://www.w3.org/2000/svg"
   xmlns="http://www.w3.org/2000/svg"
   xmlns:sodipodi="http://sodipodi.sourceforge.net/DTD/sodipodi-0.dtd"
   xmlns:inkscape="http://www.inkscape.org/namespaces/inkscape"
   version="1.1"
   id="Layer_1"
   x="0px"
   y="0px"
   width="90"
   height="30"
   viewBox="0 0 90 30"
   enable-background="new 0 0 224 64"
   xml:space="preserve"
   inkscape:version="0.48.4 r9939"
   sodipodi:docname="contacts.svg"><metadata
   id="metadata3062"><rdf:RDF><cc:Work
       rdf:about=""><dc:format>image/svg+xml</dc:format><dc:type
         rdf:resource="http://purl.org/dc/dcmitype/StillImage" /><dc:title /></cc:Work></rdf:RDF></metadata><defs
   id="defs3060" /><sodipodi:namedview
   pagecolor="#ffffff"
   bordercolor="#666666"
   borderopacity="1"
   objecttolerance="10"
   gridtolerance="10"
   guidetolerance="10"
   inkscape:pageopacity="0"
   inkscape:pageshadow="2"
   inkscape:window-width="1920"
   inkscape:window-height="1028"
   id="namedview3058"
   showgrid="false"
   showguides="true"
   inkscape:guide-bbox="true"
   inkscape:zoom="6.6964286"
   inkscape:cx="38.650953"
   inkscape:cy="1.7198868"
   inkscape:window-x="-8"
   inkscape:window-y="-8"
   inkscape:window-maximized="1"
   inkscape:current-layer="Layer_1"><sodipodi:guide
     orientation="1,0"
     position="0,38.976"
     id="guide3100" /><sodipodi:guide
     orientation="1,0"
     position="30.016,35.84"
     id="guide3102" /><sodipodi:guide
     orientation="1,0"
     position="60.032,37.632"
     id="guide3104" /><sodipodi:guide
     orientation="1,0"
     position="90.048,43.157333"
     id="guide3106" /><sodipodi:guide
     orientation="1,0"
     position="120.064,35.84"
     id="guide3108" /><sodipodi:guide
     orientation="1,0"
     position="149.93067,49.130667"
     id="guide3110" /><sodipodi:guide
     orientation="1,0"
     position="179.94667,45.994667"
     id="guide3112" /><sodipodi:guide
     orientation="0,1"
     position="179.94667,40.021333"
     id="guide3114" /></sodipodi:namedview>




<path
   d="m 70,18 c -1.1,0 -2,0.9 -2,2 0,1.1 0.9,2 2,2 1.1,0 2,-0.9 2,-2 0.1,-1 -0.9,-2 -2,-2 z m -2,-6.6 v 3.1 c 4.2,0 7.5,3.6 7.5,7.5 h 3.1 C 78.6,16.2 73.8,11.4 68,11.4 z M 68,6 v 3.1 c 7.1,0 12.9,5.8 12.9,12.9 H 84 C 84,13.2 76.8,6 68,6 z"
   id="path3038"
   inkscape:connector-curvature="0"
   style="fill:#383838" />
<path
   d="m 47.8,15.1 c -0.6,0 -1.1,0.7 -1.1,1.6 0,0.9 0.5,1.6 1.1,1.6 0.6,0 1.1,-0.7 1.1,-1.6 0,-0.9 -0.5,-1.6 -1.1,-1.6 z m 3.9,-4 c 0.1,-0.3 0.1,-2.1 -0.6,-3.8 0,0 -1.6,0.2 -4,1.8 C 46.6,9 45.8,8.9 44.9,8.9 44,8.9 43.2,9 42.7,9.1 40.3,7.5 38.7,7.3 38.7,7.3 38,9 38,10.8 38.1,11.1 37.5,11.9 37,13 37,14.4 c 0,6.2 5.2,6.3 6.5,6.3 0.3,0 0.9,0 1.5,0 0.6,0 1.2,0 1.5,0 1.3,0 6.5,-0.1 6.5,-6.3 0,-1.4 -0.5,-2.5 -1.3,-3.3 z M 45,20 l 0,0 c -3.3,0 -5.9,-0.4 -5.9,-3.6 0,-0.8 0.3,-1.5 0.9,-2.1 1.1,-1 2.9,-0.5 4.9,-0.5 l 0,0 0,0 c 2.1,0 3.9,-0.5 4.9,0.5 0.6,0.6 0.9,1.3 0.9,2.1 0.2,3.2 -2.4,3.6 -5.7,3.6 z m -2.8,-4.9 c -0.6,0 -1.1,0.7 -1.1,1.6 0,0.9 0.5,1.6 1.1,1.6 0.6,0 1.1,-0.7 1.1,-1.6 0.1,-0.9 -0.4,-1.6 -1.1,-1.6 z"
   id="path3040"
   inkscape:connector-curvature="0"
   style="fill:#383838" />







<path
   d="m 204,15 c 0,0.6 0.4,1 1,1 0.6,0 1,-0.4 1,-1 0,-0.6 -0.4,-1 -1,-1 -0.6,0 -1,0.4 -1,1 z m 6,0 c 0,0.6 0.4,1 1,1 0.6,0 1,-0.4 1,-1 0,-0.6 -0.4,-1 -1,-1 -0.6,0 -1,0.4 -1,1 z m 0,2.1 c 0.3,-0.2 0.6,-0.2 0.8,0.1 0.2,0.3 0.2,0.6 -0.1,0.8 -0.7,0.6 -1.8,0.9 -2.8,0.9 -1,0 -2.1,-0.4 -2.8,-0.9 -0.3,-0.2 -0.3,-0.6 -0.1,-0.8 0.2,-0.3 0.6,-0.3 0.8,-0.1 0.4,0.3 1.2,0.7 2,0.7 0.8,0 1.8,-0.3 2.2,-0.7 z m 6,-4.1 c 0,-1.1 -0.9,-2 -2,-2 -0.8,0 -1.4,0.4 -1.7,1 -1,-0.6 -2.3,-0.9 -3.6,-1 l 1.2,-2.7 2.3,0.7 c 0.2,0.6 0.8,1 1.4,1 0.8,0 1.5,-0.7 1.5,-1.5 0,-0.8 -0.7,-1.5 -1.5,-1.5 -0.6,0 -1.1,0.3 -1.3,0.8 l -2.5,-0.7 c -0.3,-0.1 -0.6,0.1 -0.7,0.3 l -1.6,3.6 c -1.3,0.1 -2.6,0.5 -3.6,1 -0.3,-0.6 -1,-1 -1.7,-1 -1.1,0 -2,0.9 -2,2 0,0.8 0.5,1.5 1.2,1.8 -0.1,0.4 -0.2,0.8 -0.2,1.2 0,2.8 3.1,5 7,5 3.9,0 7,-2.2 7,-5 0,-0.4 -0.1,-0.8 -0.2,-1.2 0.5,-0.3 1,-1 1,-1.8 z m -2.5,-5.1 c 0.3,0 0.6,0.3 0.6,0.6 0,0.3 -0.3,0.6 -0.6,0.6 -0.3,0 -0.6,-0.3 -0.6,-0.6 0,-0.3 0.3,-0.6 0.6,-0.6 z M 201,13 c 0,-0.6 0.4,-1 1,-1 0.4,0 0.7,0.2 0.9,0.6 -0.5,0.4 -1,0.9 -1.3,1.4 -0.3,-0.2 -0.6,-0.6 -0.6,-1 z m 7,6.8 c -3.2,0 -5.8,-1.7 -5.8,-3.8 0,-2.1 2.6,-3.8 5.8,-3.8 3.2,0 5.8,1.7 5.8,3.8 0,2.1 -2.6,3.8 -5.8,3.8 z m 6.4,-5.9 c -0.3,-0.5 -0.8,-1 -1.3,-1.4 0.2,-0.3 0.5,-0.6 0.9,-0.6 0.6,0 1,0.4 1,1 0,0.5 -0.3,0.9 -0.6,1 z"
   id="path3056"
   inkscape:connector-curvature="0"
   style="fill:#ffffff" />
<g
   transform="matrix(0.53613852,0,0,0.53613852,6.01208,6.219904)"
   id="g3049"
   style="fill:#383838;fill-opacity:1"><path
     inkscape:connector-curvature="0"
     d="M 1.285,11.671 C 0.6,11.934 0.114,12.55 0.017,13.277 c -0.096,0.728 0.213,1.449 0.806,1.88 L 7.315,19.881 30.374,1.74 9.985,21.826 18.86,28.284 c 0.565,0.411 1.293,0.534 1.964,0.33 0.67,-0.204 1.204,-0.712 1.444,-1.368 L 31.762,1.261 C 31.858,0.997 31.791,0.702 31.591,0.505 31.391,0.308 31.096,0.246 30.833,0.347 L 1.285,11.671 z"
     id="path3051"
     style="fill:#383838;fill-opacity:1" /><path
     inkscape:connector-curvature="0"
     d="m 5.774,21.451 0.055,0.301 1.26,6.889 c 0.094,0.512 0.436,0.941 0.912,1.148 0.476,0.206 1.025,0.162 1.461,-0.119 1.755,-1.132 4.047,-2.634 3.985,-2.722 L 5.774,21.451 z"
     id="path3053"
     style="fill:#383838;fill-opacity:1" /></g></svg>